<svg contentScriptType="application/ecmascript" contentStyleType="text/css" height="299px" preserveAspectRatio="none" style="width:221px;height:299px;" version="1.1" viewBox="0 0 221 299" width="221px" xmlns="http://www.w3.org/2000/svg" xmlns:xlink="http://www.w3.org/1999/xlink" zoomAndPan="magnify"><defs><filter height="300%" id="fdrd9ndgo8mo1" width="300%" x="-1" y="-1"><feGaussianBlur result="blurOut" stdDeviation="2.0"/><feColorMatrix in="blurOut" result="blurOut2" type="matrix" values="0 0 0 0 0 0 0 0 0 0 0 0 0 0 0 0 0 0 .4 0"/><feOffset dx="4.0" dy="4.0" in="blurOut2" result="blurOut3"/><feBlend in="SourceGraphic" in2="blurOut3" mode="normal"/></filter></defs><g><rect fill="#FFFFFF" filter="url(#fdrd9ndgo8mo1)" height="76" style="stroke: #A80036; stroke-width: 1.0;" width="10" x="100.5" y="113"/><rect fill="#FFFFFF" filter="url(#fdrd9ndgo8mo1)" height="69" style="stroke: #000000; stroke-width: 2.0;" width="197" x="13" y="128"/><line style="stroke: #A80036; stroke-width: 1.0; stroke-dasharray: 5.0,5.0;" x1="40" x2="40" y1="84" y2="214"/><line style="stroke: #A80036; stroke-width: 1.0; stroke-dasharray: 5.0,5.0;" x1="105" x2="105" y1="84" y2="214"/><text fill="#000000" font-family="sans-serif" font-size="14" lengthAdjust="spacingAndGlyphs" textLength="29" x="23" y="82.3184">User</text><ellipse cx="40.5" cy="13" fill="#FEFECE" filter="url(#fdrd9ndgo8mo1)" rx="8" ry="8" style="stroke: #A80036; stroke-width: 2.0;"/><path d="M40.5,21 L40.5,48 M27.5,29 L53.5,29 M40.5,48 L27.5,63 M40.5,48 L53.5,63 " fill="none" filter="url(#fdrd9ndgo8mo1)" style="stroke: #A80036; stroke-width: 2.0;"/><text fill="#000000" font-family="sans-serif" font-size="14" lengthAdjust="spacingAndGlyphs" textLength="29" x="23" y="225.3184">User</text><ellipse cx="40.5" cy="237" fill="#FEFECE" filter="url(#fdrd9ndgo8mo1)" rx="8" ry="8" style="stroke: #A80036; stroke-width: 2.0;"/><path d="M40.5,245 L40.5,272 M27.5,253 L53.5,253 M40.5,272 L27.5,287 M40.5,272 L53.5,287 " fill="none" filter="url(#fdrd9ndgo8mo1)" style="stroke: #A80036; stroke-width: 2.0;"/><rect fill="#FEFECE" filter="url(#fdrd9ndgo8mo1)" height="28" style="stroke: #A80036; stroke-width: 1.5;" width="71" x="68" y="51"/><text fill="#000000" font-family="sans-serif" font-size="14" lengthAdjust="spacingAndGlyphs" textLength="57" x="75" y="70.3184">FizzBuzz</text><rect fill="#FEFECE" filter="url(#fdrd9ndgo8mo1)" height="28" style="stroke: #A80036; stroke-width: 1.5;" width="71" x="68" y="213"/><text fill="#000000" font-family="sans-serif" font-size="14" lengthAdjust="spacingAndGlyphs" textLength="57" x="75" y="232.3184">FizzBuzz</text><rect fill="#FFFFFF" filter="url(#fdrd9ndgo8mo1)" height="76" style="stroke: #A80036; stroke-width: 1.0;" width="10" x="100.5" y="113"/><polygon fill="#A80036" points="88.5,109,98.5,113,88.5,117,92.5,113" style="stroke: #A80036; stroke-width: 1.0;"/><line style="stroke: #A80036; stroke-width: 1.0;" x1="40.5" x2="94.5" y1="113" y2="113"/><text fill="#000000" font-family="sans-serif" font-size="13" lengthAdjust="spacingAndGlyphs" textLength="40" x="47.5" y="109.4385">iterate</text><path d="M13,128 L90,128 L90,133 L80,143 L13,143 L13,128 " fill="#EEEEEE" style="stroke: #000000; stroke-width: 1.0;"/><rect fill="none" height="69" style="stroke: #000000; stroke-width: 2.0;" width="197" x="13" y="128"/><text fill="#000000" font-family="sans-serif" font-size="13" font-weight="bold" lengthAdjust="spacingAndGlyphs" textLength="32" x="28" y="140.4385">loop</text><text fill="#000000" font-family="sans-serif" font-size="11" font-weight="bold" lengthAdjust="spacingAndGlyphs" textLength="100" x="105" y="139.6787">[for each iterate]</text><line style="stroke: #A80036; stroke-width: 1.0;" x1="110.5" x2="152.5" y1="162" y2="162"/><line style="stroke: #A80036; stroke-width: 1.0;" x1="152.5" x2="152.5" y1="162" y2="175"/><line style="stroke: #A80036; stroke-width: 1.0;" x1="111.5" x2="152.5" y1="175" y2="175"/><polygon fill="#A80036" points="121.5,171,111.5,175,121.5,179,117.5,175" style="stroke: #A80036; stroke-width: 1.0;"/><text fill="#000000" font-family="sans-serif" font-size="13" lengthAdjust="spacingAndGlyphs" textLength="53" x="117.5" y="158.4385">generate</text><polygon fill="#A80036" points="51.5,185,41.5,189,51.5,193,47.5,189" style="stroke: #A80036; stroke-width: 1.0;"/><line style="stroke: #A80036; stroke-width: 1.0;" x1="45.5" x2="104.5" y1="189" y2="189"/><!--MD5=[dc3589d7ac422903cbb8e8293d39de4e]
@startuml
actor User

User -> FizzBuzz: iterate
loop for each iterate
      activate FizzBuzz
      FizzBuzz -> FizzBuzz: generate
            User <- FizzBuzz
      deactivate FizzBuzz
end
@enduml

PlantUML version 1.2019.12(Sun Nov 03 10:24:54 UTC 2019)
(GPL source distribution)
Java Runtime: OpenJDK Runtime Environment
JVM: OpenJDK 64-Bit Server VM
Java Version: 1.8.0_222-8u222-b10-1ubuntu1~16.04.1-b10
Operating System: Linux
Default Encoding: UTF-8
Language: ja
Country: JP
--></g></svg>