<?xml version="1.0" encoding="utf-8" standalone="no"?>
<!DOCTYPE svg PUBLIC "-//W3C//DTD SVG 1.1//EN"
  "http://www.w3.org/Graphics/SVG/1.1/DTD/svg11.dtd">
<!-- Created with matplotlib (https://matplotlib.org/) -->
<svg height="272.708194pt" version="1.1" viewBox="0 0 887.684844 272.708194" width="887.684844pt" xmlns="http://www.w3.org/2000/svg" xmlns:xlink="http://www.w3.org/1999/xlink">
 <defs>
  <style type="text/css">
*{stroke-linecap:butt;stroke-linejoin:round;}
  </style>
 </defs>
 <g id="figure_1">
  <g id="patch_1">
   <path d="M 0 272.708194 
L 887.684844 272.708194 
L 887.684844 0 
L 0 0 
z
" style="fill:#ffffff;"/>
  </g>
  <g id="axes_1">
   <g id="patch_2">
    <path d="M 37.484844 209.04 
L 874.484844 209.04 
L 874.484844 13.2 
L 37.484844 13.2 
z
" style="fill:#ffffff;"/>
   </g>
   <g id="matplotlib.axis_1">
    <g id="xtick_1">
     <g id="text_1">
      <!-- 2013-12 -->
      <defs>
       <path d="M 57.171875 0.984375 
L 6.984375 0.984375 
L 6.984375 9.28125 
Q 12.890625 23.046875 29.59375 34.421875 
L 32.375 36.28125 
Q 40.921875 42.140625 43.609375 45.40625 
Q 46.6875 49.265625 46.6875 53.8125 
Q 46.6875 58.9375 43.0625 62.546875 
Q 39.0625 66.546875 32.5625 66.546875 
Q 19.53125 66.546875 15.484375 52 
L 7.765625 54.78125 
Q 13.328125 73.828125 33.0625 73.828125 
Q 43.84375 73.828125 50.25 67.4375 
Q 55.859375 61.671875 55.859375 53.515625 
Q 55.859375 47.46875 52.25 42.53125 
Q 48.921875 37.75 36.96875 30.28125 
L 34.859375 29 
Q 19.625 19.578125 15.28125 8.890625 
L 57.171875 8.890625 
z
" id="IPAexGothic-50"/>
       <path d="M 31.84375 73.828125 
Q 45.015625 73.828125 52.09375 61.625 
Q 57.71875 51.953125 57.71875 36.625 
Q 57.71875 21.4375 52.09375 11.578125 
Q 45.125 -0.484375 31.5 -0.484375 
Q 17.921875 -0.484375 10.9375 11.578125 
Q 5.328125 21.4375 5.328125 36.71875 
Q 5.328125 58.015625 15.625 67.71875 
Q 22.171875 73.828125 31.84375 73.828125 
z
M 31.5 66.65625 
Q 23.6875 66.65625 19.1875 58.734375 
Q 14.59375 50.734375 14.59375 36.625 
Q 14.59375 22.75 19.09375 14.796875 
Q 23.640625 6.984375 31.5 6.984375 
Q 40.921875 6.984375 45.453125 18.015625 
Q 48.4375 25.34375 48.4375 37.109375 
Q 48.4375 50.875 43.84375 58.734375 
Q 39.203125 66.65625 31.5 66.65625 
z
" id="IPAexGothic-48"/>
       <path d="M 38.484375 0.984375 
L 29.6875 0.984375 
L 29.6875 64.109375 
Q 21.4375 61.28125 12.3125 59.328125 
L 10.6875 66.109375 
Q 23.734375 69.390625 32.90625 73.921875 
L 38.484375 73.921875 
z
" id="IPAexGothic-49"/>
       <path d="M 37.203125 37.796875 
Q 54.78125 34.625 54.78125 19.96875 
Q 54.78125 11.1875 48.875 5.5625 
Q 42.328125 -0.484375 30.375 -0.484375 
Q 12.453125 -0.484375 4.5 13.765625 
L 11.8125 17.671875 
Q 17.328125 6.890625 30.28125 6.890625 
Q 37.890625 6.890625 42.09375 10.796875 
Q 46.09375 14.5 46.09375 20.171875 
Q 46.09375 26.859375 40.09375 30.90625 
Q 34.625 34.578125 25.6875 34.578125 
L 21.296875 34.578125 
L 21.296875 41.703125 
L 25.875 41.703125 
Q 34.859375 41.703125 39.59375 45.125 
Q 44.671875 48.734375 44.671875 54.828125 
Q 44.671875 61.46875 38.96875 64.65625 
Q 35.296875 66.84375 30.171875 66.84375 
Q 19.34375 66.84375 14.109375 55.90625 
L 6.78125 59.421875 
Q 14.015625 73.828125 30.28125 73.828125 
Q 40.578125 73.828125 46.96875 68.65625 
Q 53.375 63.578125 53.375 55.21875 
Q 53.375 47.3125 47.171875 42.28125 
Q 43.171875 39.0625 37.203125 38.1875 
z
" id="IPAexGothic-51"/>
       <path d="M 30.765625 26.609375 
L 4.984375 26.609375 
L 4.984375 34.421875 
L 30.765625 34.421875 
z
" id="IPAexGothic-45"/>
      </defs>
      <g style="fill:#262626;" transform="translate(66.378005 248.429451)rotate(-30)scale(0.11 -0.11)">
       <use xlink:href="#IPAexGothic-50"/>
       <use x="62.988281" xlink:href="#IPAexGothic-48"/>
       <use x="125.976562" xlink:href="#IPAexGothic-49"/>
       <use x="188.964844" xlink:href="#IPAexGothic-51"/>
       <use x="251.953125" xlink:href="#IPAexGothic-45"/>
       <use x="287.744141" xlink:href="#IPAexGothic-49"/>
       <use x="350.732422" xlink:href="#IPAexGothic-50"/>
      </g>
     </g>
    </g>
    <g id="xtick_2">
     <g id="text_2">
      <!-- 2014-01 -->
      <defs>
       <path d="M 59.578125 18.109375 
L 47.796875 18.109375 
L 47.796875 0.984375 
L 39.796875 0.984375 
L 39.796875 18.109375 
L 3.078125 18.109375 
L 3.078125 26.125 
L 38.375 73.09375 
L 47.796875 73.09375 
L 47.796875 25.53125 
L 59.578125 25.53125 
z
M 40.28125 64.203125 
L 39.984375 64.203125 
Q 35.59375 57.125 31.296875 51.3125 
L 11.859375 25.53125 
L 39.796875 25.53125 
L 39.796875 49.125 
Q 39.796875 54.390625 40.28125 64.203125 
z
" id="IPAexGothic-52"/>
      </defs>
      <g style="fill:#262626;" transform="translate(141.02415 248.429451)rotate(-30)scale(0.11 -0.11)">
       <use xlink:href="#IPAexGothic-50"/>
       <use x="62.988281" xlink:href="#IPAexGothic-48"/>
       <use x="125.976562" xlink:href="#IPAexGothic-49"/>
       <use x="188.964844" xlink:href="#IPAexGothic-52"/>
       <use x="251.953125" xlink:href="#IPAexGothic-45"/>
       <use x="287.744141" xlink:href="#IPAexGothic-48"/>
       <use x="350.732422" xlink:href="#IPAexGothic-49"/>
      </g>
     </g>
    </g>
    <g id="xtick_3">
     <g id="text_3">
      <!-- 2014-02 -->
      <g style="fill:#262626;" transform="translate(215.670295 248.429451)rotate(-30)scale(0.11 -0.11)">
       <use xlink:href="#IPAexGothic-50"/>
       <use x="62.988281" xlink:href="#IPAexGothic-48"/>
       <use x="125.976562" xlink:href="#IPAexGothic-49"/>
       <use x="188.964844" xlink:href="#IPAexGothic-52"/>
       <use x="251.953125" xlink:href="#IPAexGothic-45"/>
       <use x="287.744141" xlink:href="#IPAexGothic-48"/>
       <use x="350.732422" xlink:href="#IPAexGothic-50"/>
      </g>
     </g>
    </g>
    <g id="xtick_4">
     <g id="text_4">
      <!-- 2014-03 -->
      <g style="fill:#262626;" transform="translate(283.092619 248.429451)rotate(-30)scale(0.11 -0.11)">
       <use xlink:href="#IPAexGothic-50"/>
       <use x="62.988281" xlink:href="#IPAexGothic-48"/>
       <use x="125.976562" xlink:href="#IPAexGothic-49"/>
       <use x="188.964844" xlink:href="#IPAexGothic-52"/>
       <use x="251.953125" xlink:href="#IPAexGothic-45"/>
       <use x="287.744141" xlink:href="#IPAexGothic-48"/>
       <use x="350.732422" xlink:href="#IPAexGothic-51"/>
      </g>
     </g>
    </g>
    <g id="xtick_5">
     <g id="text_5">
      <!-- 2014-04 -->
      <g style="fill:#262626;" transform="translate(357.738764 248.429451)rotate(-30)scale(0.11 -0.11)">
       <use xlink:href="#IPAexGothic-50"/>
       <use x="62.988281" xlink:href="#IPAexGothic-48"/>
       <use x="125.976562" xlink:href="#IPAexGothic-49"/>
       <use x="188.964844" xlink:href="#IPAexGothic-52"/>
       <use x="251.953125" xlink:href="#IPAexGothic-45"/>
       <use x="287.744141" xlink:href="#IPAexGothic-48"/>
       <use x="350.732422" xlink:href="#IPAexGothic-52"/>
      </g>
     </g>
    </g>
    <g id="xtick_6">
     <g id="text_6">
      <!-- 2014-05 -->
      <defs>
       <path d="M 18.40625 40.671875 
Q 25.53125 46.296875 33.9375 46.296875 
Q 44 46.296875 50.640625 39.5 
Q 56.84375 33.015625 56.84375 23.390625 
Q 56.84375 14.65625 51.515625 8.015625 
Q 44.828125 -0.484375 31.734375 -0.484375 
Q 14.984375 -0.484375 7.328125 12.25 
L 14.65625 16.0625 
Q 20.453125 6.78125 31.453125 6.78125 
Q 38.53125 6.78125 43.265625 11.1875 
Q 48.140625 15.828125 48.140625 23.484375 
Q 48.140625 30.71875 43.84375 35.015625 
Q 39.359375 39.5 32.125 39.5 
Q 21.96875 39.5 16.75 31.6875 
L 9.234375 32.671875 
L 13.8125 72.40625 
L 53.21875 72.40625 
L 53.21875 64.890625 
L 20.953125 64.890625 
L 17.71875 40.671875 
z
" id="IPAexGothic-53"/>
      </defs>
      <g style="fill:#262626;" transform="translate(429.976969 248.429451)rotate(-30)scale(0.11 -0.11)">
       <use xlink:href="#IPAexGothic-50"/>
       <use x="62.988281" xlink:href="#IPAexGothic-48"/>
       <use x="125.976562" xlink:href="#IPAexGothic-49"/>
       <use x="188.964844" xlink:href="#IPAexGothic-52"/>
       <use x="251.953125" xlink:href="#IPAexGothic-45"/>
       <use x="287.744141" xlink:href="#IPAexGothic-48"/>
       <use x="350.732422" xlink:href="#IPAexGothic-53"/>
      </g>
     </g>
    </g>
    <g id="xtick_7">
     <g id="text_7">
      <!-- 2014-06 -->
      <defs>
       <path d="M 16.5 36.375 
Q 23.578125 46.578125 34.90625 46.578125 
Q 45.40625 46.578125 51.8125 39.265625 
Q 57.421875 32.90625 57.421875 23.78125 
Q 57.421875 13.8125 51.125 6.78125 
Q 44.578125 -0.484375 34.03125 -0.484375 
Q 21.484375 -0.484375 14.40625 9.078125 
Q 7.515625 18.40625 7.515625 34.8125 
Q 7.515625 53.515625 15.828125 64.203125 
Q 23.34375 73.828125 35.5 73.828125 
Q 49.859375 73.828125 56.390625 62.890625 
L 49.21875 58.984375 
Q 45.21875 66.65625 35.9375 66.65625 
Q 17.484375 66.65625 16.109375 36.375 
z
M 33.453125 39.796875 
Q 26.3125 39.796875 21.625 34.46875 
Q 17.4375 29.6875 17.4375 24.078125 
Q 17.4375 18.0625 21.140625 13.1875 
Q 26.125 6.6875 33.734375 6.6875 
Q 41.703125 6.6875 45.953125 13.1875 
Q 48.828125 17.625 48.828125 23.484375 
Q 48.828125 30.375 45.015625 34.8125 
Q 40.625 39.796875 33.453125 39.796875 
z
" id="IPAexGothic-54"/>
      </defs>
      <g style="fill:#262626;" transform="translate(504.623114 248.429451)rotate(-30)scale(0.11 -0.11)">
       <use xlink:href="#IPAexGothic-50"/>
       <use x="62.988281" xlink:href="#IPAexGothic-48"/>
       <use x="125.976562" xlink:href="#IPAexGothic-49"/>
       <use x="188.964844" xlink:href="#IPAexGothic-52"/>
       <use x="251.953125" xlink:href="#IPAexGothic-45"/>
       <use x="287.744141" xlink:href="#IPAexGothic-48"/>
       <use x="350.732422" xlink:href="#IPAexGothic-54"/>
      </g>
     </g>
    </g>
    <g id="xtick_8">
     <g id="text_8">
      <!-- 2014-07 -->
      <defs>
       <path d="M 56.203125 66.609375 
Q 34.96875 32.90625 27.78125 0.984375 
L 17.671875 0.984375 
Q 24.703125 28.65625 46.09375 64.5 
L 6.6875 64.5 
L 6.6875 72.40625 
L 56.203125 72.40625 
z
" id="IPAexGothic-55"/>
      </defs>
      <g style="fill:#262626;" transform="translate(576.861319 248.429451)rotate(-30)scale(0.11 -0.11)">
       <use xlink:href="#IPAexGothic-50"/>
       <use x="62.988281" xlink:href="#IPAexGothic-48"/>
       <use x="125.976562" xlink:href="#IPAexGothic-49"/>
       <use x="188.964844" xlink:href="#IPAexGothic-52"/>
       <use x="251.953125" xlink:href="#IPAexGothic-45"/>
       <use x="287.744141" xlink:href="#IPAexGothic-48"/>
       <use x="350.732422" xlink:href="#IPAexGothic-55"/>
      </g>
     </g>
    </g>
    <g id="xtick_9">
     <g id="text_9">
      <!-- 2014-08 -->
      <defs>
       <path d="M 39.703125 37.890625 
Q 57.8125 31.734375 57.8125 18.703125 
Q 57.8125 8.453125 48.4375 3.078125 
Q 41.609375 -0.875 31.5 -0.875 
Q 21.34375 -0.875 14.5 3.078125 
Q 5.421875 8.296875 5.421875 18.40625 
Q 5.421875 31.0625 22.015625 37.203125 
L 22.015625 37.5 
Q 7.515625 42.71875 7.515625 54.828125 
Q 7.515625 64.0625 15.328125 69.625 
Q 21.96875 74.3125 31.546875 74.3125 
Q 42.234375 74.3125 48.921875 68.796875 
Q 55.515625 63.578125 55.515625 55.71875 
Q 55.515625 42.28125 39.703125 38.1875 
z
M 31.59375 41.015625 
Q 46.828125 44.625 46.828125 55.125 
Q 46.828125 61.1875 41.796875 64.84375 
Q 37.703125 67.921875 31.5 67.921875 
Q 25.09375 67.921875 20.796875 64.5 
Q 16.40625 60.890625 16.40625 55.03125 
Q 16.40625 49.21875 21.09375 45.703125 
Q 23.34375 43.890625 26.90625 42.53125 
Q 31 40.875 31.59375 41.015625 
z
M 30.90625 34.515625 
Q 14.40625 30.171875 14.40625 19 
Q 14.40625 12.109375 20.515625 8.6875 
Q 25.09375 6.109375 31.390625 6.109375 
Q 40.234375 6.109375 45.015625 10.890625 
Q 48.53125 14.40625 48.53125 19.53125 
Q 48.53125 24.90625 43.65625 28.90625 
Q 40.765625 31.15625 36.71875 32.8125 
Q 31.984375 34.71875 30.90625 34.515625 
z
" id="IPAexGothic-56"/>
      </defs>
      <g style="fill:#262626;" transform="translate(651.507464 248.429451)rotate(-30)scale(0.11 -0.11)">
       <use xlink:href="#IPAexGothic-50"/>
       <use x="62.988281" xlink:href="#IPAexGothic-48"/>
       <use x="125.976562" xlink:href="#IPAexGothic-49"/>
       <use x="188.964844" xlink:href="#IPAexGothic-52"/>
       <use x="251.953125" xlink:href="#IPAexGothic-45"/>
       <use x="287.744141" xlink:href="#IPAexGothic-48"/>
       <use x="350.732422" xlink:href="#IPAexGothic-56"/>
      </g>
     </g>
    </g>
    <g id="xtick_10">
     <g id="text_10">
      <!-- 2014-09 -->
      <defs>
       <path d="M 46.625 36.8125 
Q 39.75 26.8125 28.328125 26.8125 
Q 19.578125 26.8125 13.234375 32.125 
Q 5.71875 38.421875 5.71875 49.421875 
Q 5.71875 59.578125 12.015625 66.65625 
Q 18.453125 73.828125 29.203125 73.828125 
Q 43.75 73.828125 50.640625 61.71875 
Q 55.609375 52.78125 55.609375 38.625 
Q 55.609375 19.53125 47.515625 9.1875 
Q 39.890625 -0.484375 27.640625 -0.484375 
Q 13.421875 -0.484375 6.109375 10.984375 
L 13.328125 14.890625 
Q 18.0625 6.6875 27.390625 6.6875 
Q 45.65625 6.6875 47.015625 36.8125 
z
M 29.5 66.84375 
Q 22.65625 66.84375 18.3125 61.71875 
Q 14.40625 57.078125 14.40625 50 
Q 14.40625 42.828125 18.109375 38.71875 
Q 22.40625 33.796875 29.78125 33.796875 
Q 37.984375 33.796875 42.625 40.1875 
Q 45.703125 44.484375 45.703125 49.515625 
Q 45.703125 55.515625 42.09375 60.359375 
Q 37.109375 66.84375 29.5 66.84375 
z
" id="IPAexGothic-57"/>
      </defs>
      <g style="fill:#262626;" transform="translate(726.153609 248.429451)rotate(-30)scale(0.11 -0.11)">
       <use xlink:href="#IPAexGothic-50"/>
       <use x="62.988281" xlink:href="#IPAexGothic-48"/>
       <use x="125.976562" xlink:href="#IPAexGothic-49"/>
       <use x="188.964844" xlink:href="#IPAexGothic-52"/>
       <use x="251.953125" xlink:href="#IPAexGothic-45"/>
       <use x="287.744141" xlink:href="#IPAexGothic-48"/>
       <use x="350.732422" xlink:href="#IPAexGothic-57"/>
      </g>
     </g>
    </g>
    <g id="xtick_11">
     <g id="text_11">
      <!-- 2014-10 -->
      <g style="fill:#262626;" transform="translate(798.391814 248.429451)rotate(-30)scale(0.11 -0.11)">
       <use xlink:href="#IPAexGothic-50"/>
       <use x="62.988281" xlink:href="#IPAexGothic-48"/>
       <use x="125.976562" xlink:href="#IPAexGothic-49"/>
       <use x="188.964844" xlink:href="#IPAexGothic-52"/>
       <use x="251.953125" xlink:href="#IPAexGothic-45"/>
       <use x="287.744141" xlink:href="#IPAexGothic-49"/>
       <use x="350.732422" xlink:href="#IPAexGothic-48"/>
      </g>
     </g>
    </g>
    <g id="text_12">
     <!-- datetime -->
     <defs>
      <path d="M 52.984375 0.984375 
L 45.171875 0.984375 
L 45.171875 9.671875 
Q 38.140625 -0.484375 27.390625 -0.484375 
Q 18.453125 -0.484375 12.3125 5.8125 
Q 4.890625 13.1875 4.890625 25.984375 
Q 4.890625 38.53125 12.0625 45.90625 
Q 18.265625 52.203125 27.390625 52.203125 
Q 37.25 52.203125 44.484375 43.890625 
L 44.484375 74.90625 
L 52.984375 74.90625 
z
M 44.484375 20.359375 
L 44.484375 32.765625 
Q 44.484375 37.703125 38.375 42.28125 
Q 34.078125 45.40625 28.953125 45.40625 
Q 23.1875 45.40625 19.1875 41.40625 
Q 13.875 36.078125 13.875 26.21875 
Q 13.875 17.328125 18.265625 11.71875 
Q 22.515625 6.390625 28.859375 6.390625 
Q 36.28125 6.390625 41.5 13.671875 
Q 44.484375 17.71875 44.484375 20.359375 
z
" id="IPAexGothic-100"/>
      <path d="M 49.3125 0.984375 
L 41.75 0.984375 
Q 39.984375 4.734375 39.546875 8.6875 
L 39.203125 8.6875 
Q 33.546875 -0.390625 22.3125 -0.390625 
Q 14.59375 -0.390625 9.71875 4.5 
Q 5.421875 8.796875 5.421875 14.984375 
Q 5.421875 30.421875 32.03125 31.203125 
L 38.71875 31.390625 
L 38.71875 33.984375 
Q 38.71875 39.203125 35.75 42.1875 
Q 32.625 45.3125 27.734375 45.3125 
Q 19.34375 45.3125 15.140625 37.15625 
L 7.71875 40.578125 
Q 14.65625 52 27.9375 52 
Q 37.109375 52 42.046875 46.875 
Q 46.625 42.28125 46.625 33.890625 
L 46.625 15.578125 
Q 46.625 6.25 49.3125 0.984375 
z
M 38.921875 25.390625 
L 33.453125 25.296875 
Q 14.109375 24.859375 14.109375 14.890625 
Q 14.109375 11.375 16.40625 9.078125 
Q 19.234375 6.296875 23.828125 6.296875 
Q 30.21875 6.296875 34.90625 10.984375 
Q 38.921875 15.140625 38.921875 21 
z
" id="IPAexGothic-97"/>
      <path d="M 33.203125 3.765625 
Q 27.640625 -0.09375 21.828125 -0.09375 
Q 10.203125 -0.09375 10.203125 12.984375 
L 10.203125 44.671875 
L 3.421875 44.671875 
L 3.421875 50.78125 
L 10.203125 50.78125 
L 10.203125 61.96875 
L 18.40625 66.0625 
L 18.40625 50.78125 
L 32.234375 50.78125 
L 32.234375 44.671875 
L 18.40625 44.671875 
L 18.40625 14.15625 
Q 18.40625 6.5 23.640625 6.5 
Q 27.15625 6.5 30.328125 9.1875 
z
" id="IPAexGothic-116"/>
      <path d="M 13.484375 24.90625 
Q 13.921875 16.265625 18.890625 11.28125 
Q 23.96875 6.203125 31.203125 6.203125 
Q 40.71875 6.203125 46.296875 15.09375 
L 51.90625 11.375 
Q 44.828125 -0.484375 30.171875 -0.484375 
Q 19.09375 -0.484375 11.96875 6.59375 
Q 4.78125 13.8125 4.78125 25.640625 
Q 4.78125 38.1875 12.3125 45.703125 
Q 19 52.390625 29 52.390625 
Q 38.421875 52.390625 44.78125 46.1875 
Q 51.90625 38.96875 51.90625 26.90625 
L 51.90625 24.90625 
z
M 43.0625 31.203125 
Q 42.328125 37.984375 38.28125 41.890625 
Q 34.28125 45.90625 28.8125 45.90625 
Q 22.46875 45.90625 17.96875 40.484375 
Q 14.890625 36.8125 13.96875 31.203125 
z
" id="IPAexGothic-101"/>
      <path d="M 18.40625 61.375 
L 8.59375 61.375 
L 8.59375 71.390625 
L 18.40625 71.390625 
z
M 17.78125 0.984375 
L 9.1875 0.984375 
L 9.1875 50.78125 
L 17.78125 50.78125 
z
" id="IPAexGothic-105"/>
      <path d="M 78.46875 0.984375 
L 69.875 0.984375 
L 69.875 32.171875 
Q 69.875 44.828125 60.109375 44.828125 
Q 55.46875 44.828125 51.609375 40.53125 
Q 48.875 37.453125 47.796875 32.859375 
L 47.796875 0.984375 
L 39.203125 0.984375 
L 39.203125 32.28125 
Q 39.203125 44.828125 29.984375 44.828125 
Q 25.09375 44.828125 21.390625 40.53125 
Q 17.390625 36.03125 17.390625 31.890625 
L 17.390625 0.984375 
L 8.796875 0.984375 
L 8.796875 50.78125 
L 16.796875 50.78125 
L 16.796875 42.1875 
Q 21.734375 51.8125 31.6875 51.8125 
Q 42.578125 51.8125 46.1875 41.359375 
Q 51.609375 51.8125 61.765625 51.8125 
Q 69.96875 51.8125 74.5625 46 
Q 78.46875 41.21875 78.46875 32.375 
z
" id="IPAexGothic-109"/>
     </defs>
     <g style="fill:#262626;" transform="translate(431.112969 263.228194)scale(0.12 -0.12)">
      <use xlink:href="#IPAexGothic-100"/>
      <use x="62.402344" xlink:href="#IPAexGothic-97"/>
      <use x="117.382812" xlink:href="#IPAexGothic-116"/>
      <use x="152.001953" xlink:href="#IPAexGothic-101"/>
      <use x="208.886719" xlink:href="#IPAexGothic-116"/>
      <use x="243.505859" xlink:href="#IPAexGothic-105"/>
      <use x="270.507812" xlink:href="#IPAexGothic-109"/>
      <use x="357.617188" xlink:href="#IPAexGothic-101"/>
     </g>
    </g>
   </g>
   <g id="matplotlib.axis_2">
    <g id="ytick_1">
     <g id="text_13">
      <!-- 40 -->
      <g style="fill:#262626;" transform="translate(14.128281 190.466476)scale(0.11 -0.11)">
       <use xlink:href="#IPAexGothic-52"/>
       <use x="62.988281" xlink:href="#IPAexGothic-48"/>
      </g>
     </g>
    </g>
    <g id="ytick_2">
     <g id="text_14">
      <!-- 60 -->
      <g style="fill:#262626;" transform="translate(14.128281 165.390932)scale(0.11 -0.11)">
       <use xlink:href="#IPAexGothic-54"/>
       <use x="62.988281" xlink:href="#IPAexGothic-48"/>
      </g>
     </g>
    </g>
    <g id="ytick_3">
     <g id="text_15">
      <!-- 80 -->
      <g style="fill:#262626;" transform="translate(14.128281 140.315388)scale(0.11 -0.11)">
       <use xlink:href="#IPAexGothic-56"/>
       <use x="62.988281" xlink:href="#IPAexGothic-48"/>
      </g>
     </g>
    </g>
    <g id="ytick_4">
     <g id="text_16">
      <!-- 100 -->
      <g style="fill:#262626;" transform="translate(7.2 115.239844)scale(0.11 -0.11)">
       <use xlink:href="#IPAexGothic-49"/>
       <use x="62.988281" xlink:href="#IPAexGothic-48"/>
       <use x="125.976562" xlink:href="#IPAexGothic-48"/>
      </g>
     </g>
    </g>
    <g id="ytick_5">
     <g id="text_17">
      <!-- 120 -->
      <g style="fill:#262626;" transform="translate(7.2 90.1643)scale(0.11 -0.11)">
       <use xlink:href="#IPAexGothic-49"/>
       <use x="62.988281" xlink:href="#IPAexGothic-50"/>
       <use x="125.976562" xlink:href="#IPAexGothic-48"/>
      </g>
     </g>
    </g>
    <g id="ytick_6">
     <g id="text_18">
      <!-- 140 -->
      <g style="fill:#262626;" transform="translate(7.2 65.088755)scale(0.11 -0.11)">
       <use xlink:href="#IPAexGothic-49"/>
       <use x="62.988281" xlink:href="#IPAexGothic-52"/>
       <use x="125.976562" xlink:href="#IPAexGothic-48"/>
      </g>
     </g>
    </g>
    <g id="ytick_7">
     <g id="text_19">
      <!-- 160 -->
      <g style="fill:#262626;" transform="translate(7.2 40.013211)scale(0.11 -0.11)">
       <use xlink:href="#IPAexGothic-49"/>
       <use x="62.988281" xlink:href="#IPAexGothic-54"/>
       <use x="125.976562" xlink:href="#IPAexGothic-48"/>
      </g>
     </g>
    </g>
   </g>
   <g id="line2d_1">
    <path clip-path="url(#p9587144ecd)" d="M 75.530298 123.657772 
L 77.938238 109.866223 
L 80.346179 88.55201 
L 82.754119 86.044456 
L 85.162059 73.506684 
L 92.385879 67.237798 
L 94.79382 54.700026 
L 97.20176 60.968912 
L 99.6097 47.177362 
L 102.01764 91.059565 
L 109.241461 47.177362 
L 111.649401 44.669808 
L 114.057341 47.177362 
L 116.465281 22.101818 
L 118.873221 68.491575 
L 126.097042 29.624481 
L 128.504982 42.162254 
L 130.912922 39.654699 
L 133.320862 99.836005 
L 135.728802 97.328451 
L 142.952623 35.893367 
L 145.360563 54.700026 
L 147.768503 54.700026 
L 150.176443 47.177362 
L 152.584383 68.491575 
L 162.216144 83.536901 
L 164.624084 84.790679 
L 167.032024 136.195544 
L 195.927306 72.252907 
L 198.335247 76.014238 
L 200.743187 74.760461 
L 203.151127 127.419104 
L 212.782887 74.760461 
L 215.190828 68.491575 
L 217.598768 102.34356 
L 220.006708 129.926658 
L 227.230528 78.521793 
L 229.638469 74.760461 
L 232.046409 78.521793 
L 234.454349 102.34356 
L 236.862289 121.150218 
L 244.08611 78.521793 
L 246.49405 86.044456 
L 248.90199 84.790679 
L 251.30993 104.851114 
L 253.71787 121.150218 
L 260.941691 62.222689 
L 263.349631 84.790679 
L 265.757571 78.521793 
L 268.165511 97.328451 
L 270.573451 122.403995 
L 277.797272 64.730243 
L 282.613152 97.328451 
L 285.021092 131.180435 
L 287.429032 128.672881 
L 294.652853 64.730243 
L 297.060793 112.373777 
L 299.468733 94.820896 
L 301.876673 129.926658 
L 304.284614 94.820896 
L 311.508434 74.760461 
L 313.916374 106.104891 
L 316.324314 106.104891 
L 318.732255 123.657772 
L 321.140195 149.987093 
L 328.364015 72.252907 
L 330.771955 111.12 
L 333.179896 98.582228 
L 335.587836 139.956876 
L 337.995776 144.971985 
L 345.219596 82.283124 
L 347.627537 124.911549 
L 350.035477 151.240871 
L 352.443417 136.195544 
L 354.851357 148.733316 
L 362.075177 74.760461 
L 364.483118 123.657772 
L 366.891058 146.225762 
L 369.298998 111.12 
L 378.930759 108.612446 
L 383.746639 172.555083 
L 386.154579 167.539974 
L 395.78634 131.180435 
L 398.19428 79.77557 
L 400.60222 112.373777 
L 403.01016 111.12 
L 405.4181 123.657772 
L 412.641921 102.34356 
L 415.049861 116.135109 
L 417.457801 126.165327 
L 419.865741 127.419104 
L 429.497502 121.150218 
L 431.905442 133.68799 
L 434.313382 165.03242 
L 436.721322 165.03242 
L 439.129263 166.286197 
L 446.353083 99.836005 
L 448.761023 138.703099 
L 451.168963 157.509757 
L 453.576904 166.286197 
L 463.208664 168.793752 
L 468.024545 114.881332 
L 470.432485 156.25598 
L 472.840425 177.570192 
L 484.880126 126.165327 
L 487.288066 162.524866 
L 489.696006 163.778643 
L 496.919826 144.971985 
L 499.327767 148.733316 
L 504.143647 163.778643 
L 513.775408 148.733316 
L 516.183348 147.479539 
L 518.591288 106.104891 
L 520.999228 168.793752 
L 523.407168 155.002202 
L 530.630989 139.956876 
L 533.038929 137.449321 
L 535.446869 143.718207 
L 537.854809 156.25598 
L 547.48657 143.718207 
L 549.89451 162.524866 
L 552.30245 177.570192 
L 554.71039 156.25598 
L 557.118331 119.89644 
L 564.342151 143.718207 
L 566.750091 166.286197 
L 569.158031 173.80886 
L 571.565971 146.225762 
L 581.197732 141.210653 
L 583.605672 157.509757 
L 586.013612 153.748425 
L 588.421553 166.286197 
L 590.829493 165.03242 
L 598.053313 146.225762 
L 600.461253 160.017311 
L 602.869194 156.25598 
L 605.277134 175.062638 
L 614.908894 155.002202 
L 617.316835 168.793752 
L 619.724775 173.80886 
L 622.132715 170.047529 
L 624.540655 157.509757 
L 631.764476 133.68799 
L 634.172416 166.286197 
L 636.580356 168.793752 
L 638.988296 176.316415 
L 648.620057 155.002202 
L 651.027997 172.555083 
L 653.435937 170.047529 
L 655.843877 170.047529 
L 658.251817 167.539974 
L 667.883578 170.047529 
L 670.291518 166.286197 
L 672.699458 158.763534 
L 682.331219 155.002202 
L 684.739159 171.301306 
L 687.147099 163.778643 
L 689.555039 161.271088 
L 691.96298 188.854187 
L 699.1868 142.46443 
L 701.59474 168.793752 
L 704.00268 163.778643 
L 706.410621 157.509757 
L 716.042381 180.077746 
L 718.450321 186.346633 
L 732.897962 166.286197 
L 735.305902 170.047529 
L 737.713843 166.286197 
L 740.121783 168.793752 
L 749.753543 167.539974 
L 752.161484 151.240871 
L 756.977364 166.286197 
L 759.385304 187.60041 
L 766.609125 155.002202 
L 769.017065 151.240871 
L 771.425005 170.047529 
L 773.832945 168.793752 
L 776.240885 182.585301 
L 783.464706 151.240871 
L 785.872646 157.509757 
L 788.280586 168.793752 
L 790.688526 170.047529 
L 802.728227 166.286197 
L 805.136167 175.062638 
L 807.544107 178.823969 
L 809.952047 180.077746 
L 817.175868 200.138182 
L 821.991748 162.524866 
L 824.399688 173.80886 
L 826.807629 180.077746 
L 834.031449 166.286197 
L 836.439389 186.346633 
L 836.439389 186.346633 
" style="fill:none;stroke:#4c72b0;stroke-linecap:round;stroke-width:1.5;"/>
   </g>
   <g id="patch_3">
    <path d="M 37.484844 209.04 
L 37.484844 13.2 
" style="fill:none;stroke:#262626;stroke-linecap:square;stroke-linejoin:miter;stroke-width:1.25;"/>
   </g>
   <g id="patch_4">
    <path d="M 874.484844 209.04 
L 874.484844 13.2 
" style="fill:none;stroke:#262626;stroke-linecap:square;stroke-linejoin:miter;stroke-width:1.25;"/>
   </g>
   <g id="patch_5">
    <path d="M 37.484844 209.04 
L 874.484844 209.04 
" style="fill:none;stroke:#262626;stroke-linecap:square;stroke-linejoin:miter;stroke-width:1.25;"/>
   </g>
   <g id="patch_6">
    <path d="M 37.484844 13.2 
L 874.484844 13.2 
" style="fill:none;stroke:#262626;stroke-linecap:square;stroke-linejoin:miter;stroke-width:1.25;"/>
   </g>
  </g>
 </g>
 <defs>
  <clipPath id="p9587144ecd">
   <rect height="195.84" width="837" x="37.484844" y="13.2"/>
  </clipPath>
 </defs>
</svg>
