<svg contentScriptType="application/ecmascript" contentStyleType="text/css" height="88px" preserveAspectRatio="none" style="width:138px;height:88px;" version="1.1" viewBox="0 0 138 88" width="138px" xmlns="http://www.w3.org/2000/svg" xmlns:xlink="http://www.w3.org/1999/xlink" zoomAndPan="magnify"><defs><filter height="300%" id="f13kgvyecgvkt0" width="300%" x="-1" y="-1"><feGaussianBlur result="blurOut" stdDeviation="2.0"/><feColorMatrix in="blurOut" result="blurOut2" type="matrix" values="0 0 0 0 0 0 0 0 0 0 0 0 0 0 0 0 0 0 .4 0"/><feOffset dx="4.0" dy="4.0" in="blurOut2" result="blurOut3"/><feBlend in="SourceGraphic" in2="blurOut3" mode="normal"/></filter></defs><g><!--MD5=[35eb25c30cef028d1c48f502659dece3]
class FizzBuzz--><rect fill="#FEFECE" filter="url(#f13kgvyecgvkt0)" height="70" id="FizzBuzz" style="stroke: #A80036; stroke-width: 1.5;" width="120" x="7" y="7"/><ellipse cx="39.55" cy="23" fill="#ADD1B2" rx="11" ry="11" style="stroke: #A80036; stroke-width: 1.0;"/><path d="M42.9406,24.4844 Q42.5188,29.4688 39.2063,29.4688 Q37.2531,29.4688 36.2063,27.4688 Q35.3313,25.7969 35.3313,22.8594 Q35.3313,19.8438 36.3,18.0781 Q37.3,16.2031 39.2063,16.2031 Q42.2375,16.2031 42.8625,20.6406 L40.7844,20.6406 Q40.425,18.1719 39.2063,18.1719 Q37.4719,18.1719 37.4719,22.8594 Q37.4719,27.5 39.2219,27.5 Q40.6594,27.5 40.8156,24.4844 L42.9406,24.4844 Z "/><text fill="#000000" font-family="sans-serif" font-size="12" lengthAdjust="spacingAndGlyphs" textLength="49" x="57.45" y="27.5586">FizzBuzz</text><line style="stroke: #A80036; stroke-width: 1.5;" x1="8" x2="126" y1="39" y2="39"/><line style="stroke: #A80036; stroke-width: 1.5;" x1="8" x2="126" y1="47" y2="47"/><ellipse cx="18" cy="58" fill="#84BE84" rx="3" ry="3" style="stroke: #038048; stroke-width: 1.0;"/><text fill="#000000" font-family="sans-serif" font-size="11" lengthAdjust="spacingAndGlyphs" text-decoration="underline" textLength="94" x="27" y="60.6787">generate(number)</text><ellipse cx="18" cy="69" fill="#84BE84" rx="3" ry="3" style="stroke: #038048; stroke-width: 1.0;"/><text fill="#000000" font-family="sans-serif" font-size="11" lengthAdjust="spacingAndGlyphs" textLength="72" x="27" y="71.6787">iterate(count)</text><!--MD5=[0f31065aa407cfd245ae6e703bbe35e5]
@startuml
class FizzBuzz {
+ {static}generate(number)
+ iterate(count)
}

@enduml

PlantUML version 1.2019.12(Sun Nov 03 10:24:54 UTC 2019)
(GPL source distribution)
Java Runtime: OpenJDK Runtime Environment
JVM: OpenJDK 64-Bit Server VM
Java Version: 1.8.0_222-8u222-b10-1ubuntu1~16.04.1-b10
Operating System: Linux
Default Encoding: UTF-8
Language: ja
Country: JP
--></g></svg>