<?xml version="1.0" encoding="utf-8" standalone="no"?>
<!DOCTYPE svg PUBLIC "-//W3C//DTD SVG 1.1//EN"
  "http://www.w3.org/Graphics/SVG/1.1/DTD/svg11.dtd">
<!-- Created with matplotlib (https://matplotlib.org/) -->
<svg height="257.669688pt" version="1.1" viewBox="0 0 887.684844 257.669688" width="887.684844pt" xmlns="http://www.w3.org/2000/svg" xmlns:xlink="http://www.w3.org/1999/xlink">
 <defs>
  <style type="text/css">
*{stroke-linecap:butt;stroke-linejoin:round;}
  </style>
 </defs>
 <g id="figure_1">
  <g id="patch_1">
   <path d="M 0 257.669688 
L 887.684844 257.669688 
L 887.684844 0 
L 0 0 
z
" style="fill:none;"/>
  </g>
  <g id="axes_1">
   <g id="patch_2">
    <path d="M 37.484844 230.64 
L 874.484844 230.64 
L 874.484844 13.2 
L 37.484844 13.2 
z
" style="fill:#ffffff;"/>
   </g>
   <g id="matplotlib.axis_1">
    <g id="xtick_1">
     <g id="text_1">
      <!-- 0 -->
      <defs>
       <path d="M 31.84375 73.828125 
Q 45.015625 73.828125 52.09375 61.625 
Q 57.71875 51.953125 57.71875 36.625 
Q 57.71875 21.4375 52.09375 11.578125 
Q 45.125 -0.484375 31.5 -0.484375 
Q 17.921875 -0.484375 10.9375 11.578125 
Q 5.328125 21.4375 5.328125 36.71875 
Q 5.328125 58.015625 15.625 67.71875 
Q 22.171875 73.828125 31.84375 73.828125 
z
M 31.5 66.65625 
Q 23.6875 66.65625 19.1875 58.734375 
Q 14.59375 50.734375 14.59375 36.625 
Q 14.59375 22.75 19.09375 14.796875 
Q 23.640625 6.984375 31.5 6.984375 
Q 40.921875 6.984375 45.453125 18.015625 
Q 48.4375 25.34375 48.4375 37.109375 
Q 48.4375 50.875 43.84375 58.734375 
Q 39.203125 66.65625 31.5 66.65625 
z
" id="IPAexGothic-48"/>
      </defs>
      <g style="fill:#262626;" transform="translate(72.066158 248.379688)scale(0.11 -0.11)">
       <use xlink:href="#IPAexGothic-48"/>
      </g>
     </g>
    </g>
    <g id="xtick_2">
     <g id="text_2">
      <!-- 20 -->
      <defs>
       <path d="M 57.171875 0.984375 
L 6.984375 0.984375 
L 6.984375 9.28125 
Q 12.890625 23.046875 29.59375 34.421875 
L 32.375 36.28125 
Q 40.921875 42.140625 43.609375 45.40625 
Q 46.6875 49.265625 46.6875 53.8125 
Q 46.6875 58.9375 43.0625 62.546875 
Q 39.0625 66.546875 32.5625 66.546875 
Q 19.53125 66.546875 15.484375 52 
L 7.765625 54.78125 
Q 13.328125 73.828125 33.0625 73.828125 
Q 43.84375 73.828125 50.25 67.4375 
Q 55.859375 61.671875 55.859375 53.515625 
Q 55.859375 47.46875 52.25 42.53125 
Q 48.921875 37.75 36.96875 30.28125 
L 34.859375 29 
Q 19.625 19.578125 15.28125 8.890625 
L 57.171875 8.890625 
z
" id="IPAexGothic-50"/>
      </defs>
      <g style="fill:#262626;" transform="translate(220.783835 248.379688)scale(0.11 -0.11)">
       <use xlink:href="#IPAexGothic-50"/>
       <use x="62.988281" xlink:href="#IPAexGothic-48"/>
      </g>
     </g>
    </g>
    <g id="xtick_3">
     <g id="text_3">
      <!-- 40 -->
      <defs>
       <path d="M 59.578125 18.109375 
L 47.796875 18.109375 
L 47.796875 0.984375 
L 39.796875 0.984375 
L 39.796875 18.109375 
L 3.078125 18.109375 
L 3.078125 26.125 
L 38.375 73.09375 
L 47.796875 73.09375 
L 47.796875 25.53125 
L 59.578125 25.53125 
z
M 40.28125 64.203125 
L 39.984375 64.203125 
Q 35.59375 57.125 31.296875 51.3125 
L 11.859375 25.53125 
L 39.796875 25.53125 
L 39.796875 49.125 
Q 39.796875 54.390625 40.28125 64.203125 
z
" id="IPAexGothic-52"/>
      </defs>
      <g style="fill:#262626;" transform="translate(372.965653 248.379688)scale(0.11 -0.11)">
       <use xlink:href="#IPAexGothic-52"/>
       <use x="62.988281" xlink:href="#IPAexGothic-48"/>
      </g>
     </g>
    </g>
    <g id="xtick_4">
     <g id="text_4">
      <!-- 60 -->
      <defs>
       <path d="M 16.5 36.375 
Q 23.578125 46.578125 34.90625 46.578125 
Q 45.40625 46.578125 51.8125 39.265625 
Q 57.421875 32.90625 57.421875 23.78125 
Q 57.421875 13.8125 51.125 6.78125 
Q 44.578125 -0.484375 34.03125 -0.484375 
Q 21.484375 -0.484375 14.40625 9.078125 
Q 7.515625 18.40625 7.515625 34.8125 
Q 7.515625 53.515625 15.828125 64.203125 
Q 23.34375 73.828125 35.5 73.828125 
Q 49.859375 73.828125 56.390625 62.890625 
L 49.21875 58.984375 
Q 45.21875 66.65625 35.9375 66.65625 
Q 17.484375 66.65625 16.109375 36.375 
z
M 33.453125 39.796875 
Q 26.3125 39.796875 21.625 34.46875 
Q 17.4375 29.6875 17.4375 24.078125 
Q 17.4375 18.0625 21.140625 13.1875 
Q 26.125 6.6875 33.734375 6.6875 
Q 41.703125 6.6875 45.953125 13.1875 
Q 48.828125 17.625 48.828125 23.484375 
Q 48.828125 30.375 45.015625 34.8125 
Q 40.625 39.796875 33.453125 39.796875 
z
" id="IPAexGothic-54"/>
      </defs>
      <g style="fill:#262626;" transform="translate(525.147472 248.379688)scale(0.11 -0.11)">
       <use xlink:href="#IPAexGothic-54"/>
       <use x="62.988281" xlink:href="#IPAexGothic-48"/>
      </g>
     </g>
    </g>
    <g id="xtick_5">
     <g id="text_5">
      <!-- 80 -->
      <defs>
       <path d="M 39.703125 37.890625 
Q 57.8125 31.734375 57.8125 18.703125 
Q 57.8125 8.453125 48.4375 3.078125 
Q 41.609375 -0.875 31.5 -0.875 
Q 21.34375 -0.875 14.5 3.078125 
Q 5.421875 8.296875 5.421875 18.40625 
Q 5.421875 31.0625 22.015625 37.203125 
L 22.015625 37.5 
Q 7.515625 42.71875 7.515625 54.828125 
Q 7.515625 64.0625 15.328125 69.625 
Q 21.96875 74.3125 31.546875 74.3125 
Q 42.234375 74.3125 48.921875 68.796875 
Q 55.515625 63.578125 55.515625 55.71875 
Q 55.515625 42.28125 39.703125 38.1875 
z
M 31.59375 41.015625 
Q 46.828125 44.625 46.828125 55.125 
Q 46.828125 61.1875 41.796875 64.84375 
Q 37.703125 67.921875 31.5 67.921875 
Q 25.09375 67.921875 20.796875 64.5 
Q 16.40625 60.890625 16.40625 55.03125 
Q 16.40625 49.21875 21.09375 45.703125 
Q 23.34375 43.890625 26.90625 42.53125 
Q 31 40.875 31.59375 41.015625 
z
M 30.90625 34.515625 
Q 14.40625 30.171875 14.40625 19 
Q 14.40625 12.109375 20.515625 8.6875 
Q 25.09375 6.109375 31.390625 6.109375 
Q 40.234375 6.109375 45.015625 10.890625 
Q 48.53125 14.40625 48.53125 19.53125 
Q 48.53125 24.90625 43.65625 28.90625 
Q 40.765625 31.15625 36.71875 32.8125 
Q 31.984375 34.71875 30.90625 34.515625 
z
" id="IPAexGothic-56"/>
      </defs>
      <g style="fill:#262626;" transform="translate(677.32929 248.379688)scale(0.11 -0.11)">
       <use xlink:href="#IPAexGothic-56"/>
       <use x="62.988281" xlink:href="#IPAexGothic-48"/>
      </g>
     </g>
    </g>
    <g id="xtick_6">
     <g id="text_6">
      <!-- 100 -->
      <defs>
       <path d="M 38.484375 0.984375 
L 29.6875 0.984375 
L 29.6875 64.109375 
Q 21.4375 61.28125 12.3125 59.328125 
L 10.6875 66.109375 
Q 23.734375 69.390625 32.90625 73.921875 
L 38.484375 73.921875 
z
" id="IPAexGothic-49"/>
      </defs>
      <g style="fill:#262626;" transform="translate(826.046967 248.379688)scale(0.11 -0.11)">
       <use xlink:href="#IPAexGothic-49"/>
       <use x="62.988281" xlink:href="#IPAexGothic-48"/>
       <use x="125.976562" xlink:href="#IPAexGothic-48"/>
      </g>
     </g>
    </g>
   </g>
   <g id="matplotlib.axis_2">
    <g id="ytick_1">
     <g id="text_7">
      <!-- 40 -->
      <g style="fill:#262626;" transform="translate(14.128281 203.132207)scale(0.11 -0.11)">
       <use xlink:href="#IPAexGothic-52"/>
       <use x="62.988281" xlink:href="#IPAexGothic-48"/>
      </g>
     </g>
    </g>
    <g id="ytick_2">
     <g id="text_8">
      <!-- 60 -->
      <g style="fill:#262626;" transform="translate(14.128281 163.597662)scale(0.11 -0.11)">
       <use xlink:href="#IPAexGothic-54"/>
       <use x="62.988281" xlink:href="#IPAexGothic-48"/>
      </g>
     </g>
    </g>
    <g id="ytick_3">
     <g id="text_9">
      <!-- 80 -->
      <g style="fill:#262626;" transform="translate(14.128281 124.063116)scale(0.11 -0.11)">
       <use xlink:href="#IPAexGothic-56"/>
       <use x="62.988281" xlink:href="#IPAexGothic-48"/>
      </g>
     </g>
    </g>
    <g id="ytick_4">
     <g id="text_10">
      <!-- 100 -->
      <g style="fill:#262626;" transform="translate(7.2 84.528571)scale(0.11 -0.11)">
       <use xlink:href="#IPAexGothic-49"/>
       <use x="62.988281" xlink:href="#IPAexGothic-48"/>
       <use x="125.976562" xlink:href="#IPAexGothic-48"/>
      </g>
     </g>
    </g>
    <g id="ytick_5">
     <g id="text_11">
      <!-- 120 -->
      <g style="fill:#262626;" transform="translate(7.2 44.994026)scale(0.11 -0.11)">
       <use xlink:href="#IPAexGothic-49"/>
       <use x="62.988281" xlink:href="#IPAexGothic-50"/>
       <use x="125.976562" xlink:href="#IPAexGothic-48"/>
      </g>
     </g>
    </g>
   </g>
   <g id="line2d_1">
    <path clip-path="url(#p8352478ec6)" d="M 75.530298 151.570909 
L 83.139389 185.175273 
L 90.74848 104.129455 
L 98.357571 161.454545 
L 105.966662 163.431273 
L 113.575753 133.780364 
L 121.184844 139.710545 
L 128.793935 151.570909 
L 136.403026 163.431273 
L 144.012116 29.013818 
L 151.621207 139.710545 
L 159.230298 137.733818 
L 166.839389 72.501818 
L 174.44848 171.338182 
L 182.057571 149.594182 
L 189.666662 125.873455 
L 197.275753 121.92 
L 204.884844 131.803636 
L 212.493935 151.570909 
L 220.103026 42.850909 
L 227.712116 131.803636 
L 235.321207 161.454545 
L 242.930298 185.175273 
L 250.539389 151.570909 
L 258.14848 94.245818 
L 265.757571 131.803636 
L 273.366662 167.384727 
L 280.975753 179.245091 
L 288.584844 135.757091 
L 296.193935 38.897455 
L 303.803026 127.850182 
L 311.412116 153.547636 
L 319.021207 147.617455 
L 326.630298 167.384727 
L 334.239389 165.408 
L 341.84848 135.757091 
L 349.457571 157.501091 
L 357.066662 151.570909 
L 364.675753 181.221818 
L 372.284844 131.803636 
L 379.893935 149.594182 
L 387.503026 171.338182 
L 395.112116 179.245091 
L 402.721207 173.314909 
L 410.330298 153.547636 
L 417.939389 115.989818 
L 425.54848 167.384727 
L 433.157571 171.338182 
L 440.766662 183.198545 
L 448.375753 32.967273 
L 455.984844 149.594182 
L 463.593935 177.268364 
L 471.203026 173.314909 
L 478.812116 173.314909 
L 486.421207 169.361455 
L 494.030298 173.314909 
L 501.639389 167.384727 
L 509.24848 155.524364 
L 516.857571 114.013091 
L 524.466662 149.594182 
L 532.075753 175.291636 
L 539.684844 163.431273 
L 547.293935 159.477818 
L 554.903026 202.965818 
L 562.512116 129.826909 
L 570.121207 171.338182 
L 577.730298 163.431273 
L 585.339389 153.547636 
L 592.94848 23.083636 
L 600.557571 189.128727 
L 608.166662 199.012364 
L 615.775753 167.384727 
L 623.384844 173.314909 
L 630.993935 167.384727 
L 638.603026 171.338182 
L 646.212116 80.408727 
L 653.821207 169.361455 
L 661.430298 143.664 
L 669.039389 155.524364 
L 676.64848 167.384727 
L 684.257571 200.989091 
L 691.866662 149.594182 
L 699.475753 143.664 
L 707.084844 173.314909 
L 714.693935 171.338182 
L 722.303026 193.082182 
L 729.912116 143.664 
L 737.521207 153.547636 
L 745.130298 171.338182 
L 752.739389 173.314909 
L 760.34848 50.757818 
L 767.957571 167.384727 
L 775.566662 181.221818 
L 783.175753 187.152 
L 790.784844 189.128727 
L 798.393935 220.756364 
L 806.003026 161.454545 
L 813.612116 179.245091 
L 821.221207 189.128727 
L 828.830298 167.384727 
L 836.439389 199.012364 
" style="fill:none;stroke:#4c72b0;stroke-linecap:round;stroke-width:1.5;"/>
   </g>
   <g id="line2d_2">
    <path clip-path="url(#p8352478ec6)" d="M 75.530298 151.879354 
L 83.139389 156.56101 
L 90.74848 140.459891 
L 98.357571 146.054657 
L 105.966662 148.811192 
L 113.575753 144.315611 
L 121.184844 143.338643 
L 128.793935 145.351204 
L 136.403026 145.708022 
L 144.012116 29.847094 
L 151.621207 146.060204 
L 159.230298 146.671389 
L 166.839389 85.965706 
L 174.44848 148.378483 
L 182.057571 147.554581 
L 189.666662 147.448459 
L 197.275753 147.656608 
L 204.884844 150.466978 
L 212.493935 148.812778 
L 220.103026 37.41622 
L 227.712116 149.496795 
L 235.321207 150.503354 
L 242.930298 153.690542 
L 250.539389 150.312614 
L 258.14848 101.517108 
L 265.757571 150.93357 
L 273.366662 152.786953 
L 280.975753 155.254305 
L 288.584844 147.316573 
L 296.193935 38.409133 
L 303.803026 154.688424 
L 311.412116 155.187695 
L 319.021207 154.035434 
L 326.630298 157.738275 
L 334.239389 156.65604 
L 341.84848 156.470411 
L 349.457571 156.850724 
L 357.066662 156.536439 
L 364.675753 158.087919 
L 372.284844 118.677835 
L 379.893935 159.114043 
L 387.503026 159.316921 
L 395.112116 160.068695 
L 402.721207 160.343045 
L 410.330298 153.815837 
L 417.939389 149.538333 
L 425.54848 162.864962 
L 433.157571 160.288204 
L 440.766662 162.184591 
L 448.375753 37.960128 
L 455.984844 162.589062 
L 463.593935 164.528238 
L 471.203026 164.937905 
L 478.812116 165.347573 
L 486.421207 164.438801 
L 494.030298 166.166907 
L 501.639389 165.464925 
L 509.24848 164.639462 
L 516.857571 102.416543 
L 524.466662 167.258149 
L 532.075753 167.667816 
L 539.684844 168.077483 
L 547.293935 169.008946 
L 554.903026 169.695327 
L 562.512116 165.408601 
L 570.121207 159.139159 
L 577.730298 167.956827 
L 585.339389 168.949032 
L 592.94848 35.227362 
L 600.557571 170.056308 
L 608.166662 168.29423 
L 615.775753 168.771015 
L 623.384844 170.381937 
L 630.993935 170.031115 
L 638.603026 170.440783 
L 646.212116 91.921846 
L 653.821207 168.957229 
L 661.430298 161.809198 
L 669.039389 168.53757 
L 676.64848 168.982932 
L 684.257571 169.626367 
L 691.866662 169.612097 
L 699.475753 171.804652 
L 707.084844 170.431431 
L 714.693935 170.541507 
L 722.303026 173.151922 
L 729.912116 171.618 
L 737.521207 173.810555 
L 745.130298 172.855994 
L 752.739389 173.683522 
L 760.34848 52.890577 
L 767.957571 176.460293 
L 775.566662 175.771482 
L 783.175753 177.428552 
L 790.784844 179.447298 
L 798.393935 183.764349 
L 806.003026 179.165286 
L 813.612116 179.066545 
L 821.221207 184.334853 
L 828.830298 182.50673 
L 836.439389 183.420327 
" style="fill:none;stroke:#dd8452;stroke-linecap:round;stroke-width:1.5;"/>
   </g>
   <g id="patch_3">
    <path d="M 37.484844 230.64 
L 37.484844 13.2 
" style="fill:none;stroke:#262626;stroke-linecap:square;stroke-linejoin:miter;stroke-width:1.25;"/>
   </g>
   <g id="patch_4">
    <path d="M 874.484844 230.64 
L 874.484844 13.2 
" style="fill:none;stroke:#262626;stroke-linecap:square;stroke-linejoin:miter;stroke-width:1.25;"/>
   </g>
   <g id="patch_5">
    <path d="M 37.484844 230.64 
L 874.484844 230.64 
" style="fill:none;stroke:#262626;stroke-linecap:square;stroke-linejoin:miter;stroke-width:1.25;"/>
   </g>
   <g id="patch_6">
    <path d="M 37.484844 13.2 
L 874.484844 13.2 
" style="fill:none;stroke:#262626;stroke-linecap:square;stroke-linejoin:miter;stroke-width:1.25;"/>
   </g>
   <g id="legend_1">
    <g id="patch_7">
     <path d="M 800.081875 53.659375 
L 866.784844 53.659375 
Q 868.984844 53.659375 868.984844 51.459375 
L 868.984844 20.9 
Q 868.984844 18.7 866.784844 18.7 
L 800.081875 18.7 
Q 797.881875 18.7 797.881875 20.9 
L 797.881875 51.459375 
Q 797.881875 53.659375 800.081875 53.659375 
z
" style="fill:#ffffff;opacity:0.8;stroke:#cccccc;stroke-linejoin:miter;"/>
    </g>
    <g id="line2d_3">
     <path d="M 802.281875 27.489688 
L 824.281875 27.489688 
" style="fill:none;stroke:#4c72b0;stroke-linecap:round;stroke-width:1.5;"/>
    </g>
    <g id="line2d_4"/>
    <g id="text_12">
     <!-- actual -->
     <defs>
      <path d="M 49.3125 0.984375 
L 41.75 0.984375 
Q 39.984375 4.734375 39.546875 8.6875 
L 39.203125 8.6875 
Q 33.546875 -0.390625 22.3125 -0.390625 
Q 14.59375 -0.390625 9.71875 4.5 
Q 5.421875 8.796875 5.421875 14.984375 
Q 5.421875 30.421875 32.03125 31.203125 
L 38.71875 31.390625 
L 38.71875 33.984375 
Q 38.71875 39.203125 35.75 42.1875 
Q 32.625 45.3125 27.734375 45.3125 
Q 19.34375 45.3125 15.140625 37.15625 
L 7.71875 40.578125 
Q 14.65625 52 27.9375 52 
Q 37.109375 52 42.046875 46.875 
Q 46.625 42.28125 46.625 33.890625 
L 46.625 15.578125 
Q 46.625 6.25 49.3125 0.984375 
z
M 38.921875 25.390625 
L 33.453125 25.296875 
Q 14.109375 24.859375 14.109375 14.890625 
Q 14.109375 11.375 16.40625 9.078125 
Q 19.234375 6.296875 23.828125 6.296875 
Q 30.21875 6.296875 34.90625 10.984375 
Q 38.921875 15.140625 38.921875 21 
z
" id="IPAexGothic-97"/>
      <path d="M 51.078125 12.25 
Q 44.28125 -0.484375 29.6875 -0.484375 
Q 19.1875 -0.484375 12.3125 6.390625 
Q 4.890625 13.921875 4.890625 25.984375 
Q 4.890625 37.9375 12.3125 45.515625 
Q 19.09375 52.296875 29.390625 52.296875 
Q 43.953125 52.296875 50.09375 39.703125 
L 43.171875 36.078125 
Q 38.8125 45.3125 29.6875 45.3125 
Q 23.6875 45.3125 19.28125 40.921875 
Q 13.765625 35.40625 13.765625 25.78125 
Q 13.765625 16.703125 19.09375 11.375 
Q 23.78125 6.6875 30.5625 6.6875 
Q 39.796875 6.6875 44.484375 15.875 
z
" id="IPAexGothic-99"/>
      <path d="M 33.203125 3.765625 
Q 27.640625 -0.09375 21.828125 -0.09375 
Q 10.203125 -0.09375 10.203125 12.984375 
L 10.203125 44.671875 
L 3.421875 44.671875 
L 3.421875 50.78125 
L 10.203125 50.78125 
L 10.203125 61.96875 
L 18.40625 66.0625 
L 18.40625 50.78125 
L 32.234375 50.78125 
L 32.234375 44.671875 
L 18.40625 44.671875 
L 18.40625 14.15625 
Q 18.40625 6.5 23.640625 6.5 
Q 27.15625 6.5 30.328125 9.1875 
z
" id="IPAexGothic-116"/>
      <path d="M 51.3125 0.984375 
L 43.3125 0.984375 
L 43.3125 10.0625 
Q 35.9375 0 25.390625 0 
Q 16.75 0 11.921875 5.859375 
Q 8.109375 10.59375 8.109375 19.390625 
L 8.109375 50.78125 
L 16.703125 50.78125 
L 16.703125 19.671875 
Q 16.703125 7.28125 27.09375 7.28125 
Q 37.59375 7.28125 42.71875 20.171875 
L 42.71875 50.78125 
L 51.3125 50.78125 
z
" id="IPAexGothic-117"/>
      <path d="M 17.671875 0.984375 
L 9.078125 0.984375 
L 9.078125 74.90625 
L 17.671875 74.90625 
z
" id="IPAexGothic-108"/>
     </defs>
     <g style="fill:#262626;" transform="translate(833.081875 31.339688)scale(0.11 -0.11)">
      <use xlink:href="#IPAexGothic-97"/>
      <use x="54.980469" xlink:href="#IPAexGothic-99"/>
      <use x="109.375" xlink:href="#IPAexGothic-116"/>
      <use x="143.994141" xlink:href="#IPAexGothic-117"/>
      <use x="204.394531" xlink:href="#IPAexGothic-97"/>
      <use x="259.375" xlink:href="#IPAexGothic-108"/>
     </g>
    </g>
    <g id="line2d_5">
     <path d="M 802.281875 43.319375 
L 824.281875 43.319375 
" style="fill:none;stroke:#dd8452;stroke-linecap:round;stroke-width:1.5;"/>
    </g>
    <g id="line2d_6"/>
    <g id="text_13">
     <!-- pred -->
     <defs>
      <path d="M 16.796875 42 
Q 23.828125 52.203125 34.46875 52.203125 
Q 43.265625 52.203125 49.5625 45.90625 
Q 56.890625 38.578125 56.890625 25.6875 
Q 56.890625 13.140625 49.65625 5.8125 
Q 43.359375 -0.484375 34.375 -0.484375 
Q 24.515625 -0.484375 17.28125 7.765625 
L 17.28125 -19 
L 8.796875 -19 
L 8.796875 50.78125 
L 16.796875 50.78125 
z
M 17.28125 30.46875 
L 17.28125 20.171875 
Q 17.28125 14.015625 23.6875 9.375 
Q 27.984375 6.296875 32.90625 6.296875 
Q 38.578125 6.296875 42.578125 10.296875 
Q 47.90625 15.578125 47.90625 25.484375 
Q 47.90625 34.375 43.5 39.984375 
Q 39.109375 45.3125 32.8125 45.3125 
Q 25.875 45.3125 20.90625 38.8125 
Q 17.28125 34.125 17.28125 30.46875 
z
" id="IPAexGothic-112"/>
      <path d="M 36.078125 51.8125 
L 34.578125 43.265625 
Q 32.90625 43.609375 31.59375 43.609375 
Q 25.828125 43.609375 22.078125 38.1875 
Q 17.390625 31.34375 17.390625 26.171875 
L 17.390625 0.984375 
L 8.796875 0.984375 
L 8.796875 50.78125 
L 16.890625 50.78125 
L 16.5 35.984375 
L 16.703125 35.984375 
Q 22.21875 52.203125 32.765625 52.203125 
Q 34.46875 52.203125 36.078125 51.8125 
z
" id="IPAexGothic-114"/>
      <path d="M 13.484375 24.90625 
Q 13.921875 16.265625 18.890625 11.28125 
Q 23.96875 6.203125 31.203125 6.203125 
Q 40.71875 6.203125 46.296875 15.09375 
L 51.90625 11.375 
Q 44.828125 -0.484375 30.171875 -0.484375 
Q 19.09375 -0.484375 11.96875 6.59375 
Q 4.78125 13.8125 4.78125 25.640625 
Q 4.78125 38.1875 12.3125 45.703125 
Q 19 52.390625 29 52.390625 
Q 38.421875 52.390625 44.78125 46.1875 
Q 51.90625 38.96875 51.90625 26.90625 
L 51.90625 24.90625 
z
M 43.0625 31.203125 
Q 42.328125 37.984375 38.28125 41.890625 
Q 34.28125 45.90625 28.8125 45.90625 
Q 22.46875 45.90625 17.96875 40.484375 
Q 14.890625 36.8125 13.96875 31.203125 
z
" id="IPAexGothic-101"/>
      <path d="M 52.984375 0.984375 
L 45.171875 0.984375 
L 45.171875 9.671875 
Q 38.140625 -0.484375 27.390625 -0.484375 
Q 18.453125 -0.484375 12.3125 5.8125 
Q 4.890625 13.1875 4.890625 25.984375 
Q 4.890625 38.53125 12.0625 45.90625 
Q 18.265625 52.203125 27.390625 52.203125 
Q 37.25 52.203125 44.484375 43.890625 
L 44.484375 74.90625 
L 52.984375 74.90625 
z
M 44.484375 20.359375 
L 44.484375 32.765625 
Q 44.484375 37.703125 38.375 42.28125 
Q 34.078125 45.40625 28.953125 45.40625 
Q 23.1875 45.40625 19.1875 41.40625 
Q 13.875 36.078125 13.875 26.21875 
Q 13.875 17.328125 18.265625 11.71875 
Q 22.515625 6.390625 28.859375 6.390625 
Q 36.28125 6.390625 41.5 13.671875 
Q 44.484375 17.71875 44.484375 20.359375 
z
" id="IPAexGothic-100"/>
     </defs>
     <g style="fill:#262626;" transform="translate(833.081875 47.169375)scale(0.11 -0.11)">
      <use xlink:href="#IPAexGothic-112"/>
      <use x="62.109375" xlink:href="#IPAexGothic-114"/>
      <use x="99.121094" xlink:href="#IPAexGothic-101"/>
      <use x="156.005859" xlink:href="#IPAexGothic-100"/>
     </g>
    </g>
   </g>
  </g>
 </g>
 <defs>
  <clipPath id="p8352478ec6">
   <rect height="217.44" width="837" x="37.484844" y="13.2"/>
  </clipPath>
 </defs>
</svg>
